<svg width="80" height="81" viewBox="0 0 80 81" fill="none" xmlns="http://www.w3.org/2000/svg">
<path d="M10 10.5V27.1667H26.6667" stroke="white" stroke-width="2" stroke-linecap="round" stroke-linejoin="round"/>
<path d="M10.1667 43.8333C10.905 50.5194 13.869 56.7633 18.5826 61.5623C23.2962 66.3613 29.4859 69.4369 36.1576 70.2952C42.8294 71.1535 49.5959 69.7446 55.3707 66.2949C61.1455 62.8451 65.5933 57.5547 67.9998 51.2732C70.4064 44.9917 70.632 38.0837 68.6405 31.6585C66.6489 25.2334 62.5558 19.664 57.0185 15.8448C51.4812 12.0256 44.8209 10.1782 38.1074 10.5992C31.3939 11.0203 25.0167 13.6855 20 18.1667L10 27.1667" stroke="white" stroke-width="2" stroke-linecap="round" stroke-linejoin="round"/>
<path d="M40 23.8333V40.5L53.3333 47.1667" stroke="white" stroke-width="2" stroke-linecap="round" stroke-linejoin="round"/>
</svg>
